<?xml version="1.0" encoding="iso-8859-1"?>
<!-- Generator: Adobe Illustrator 16.0.0, SVG Export Plug-In . SVG Version: 6.00 Build 0)  -->
<!DOCTYPE svg PUBLIC "-//W3C//DTD SVG 1.1//EN" "http://www.w3.org/Graphics/SVG/1.1/DTD/svg11.dtd">
<svg version="1.1" id="Capa_1" xmlns="http://www.w3.org/2000/svg" xmlns:xlink="http://www.w3.org/1999/xlink" x="0px" y="0px"
	 width="31.289px" height="31.289px" viewBox="0 0 31.289 31.289" style="enable-background:new 0 0 31.289 31.289;"
	 xml:space="preserve">
<g>
	<g>
		<circle cx="15.645" cy="14.476" r="1.96"/>
		<path d="M15.427,7.254l0.219,0.196l0.22-0.196c0.071-0.064,1.75-1.593,1.75-3.528c0-1.939-1.679-3.467-1.75-3.53L15.646,0
			l-0.219,0.195c-0.071,0.063-1.751,1.591-1.751,3.53C13.676,5.662,15.356,7.189,15.427,7.254z M15.646,0.906
			c0.424,0.453,1.313,1.556,1.313,2.819c0,1.256-0.89,2.362-1.314,2.815c-0.423-0.452-1.313-1.556-1.313-2.815
			C14.333,2.467,15.223,1.36,15.646,0.906z"/>
		<path d="M16.467,3.726c0-0.817-0.469-1.588-0.822-2.057c-0.399,0.525-0.82,1.266-0.82,2.057c0,0.815,0.469,1.587,0.822,2.052
			C16.046,5.254,16.467,4.516,16.467,3.726z"/>
		<path d="M10.384,9.524l0.295-0.018l0.015-0.294c0.005-0.094,0.113-2.361-1.257-3.732c-1.37-1.372-3.638-1.264-3.733-1.259
			L5.409,4.24L5.394,4.533C5.388,4.63,5.281,6.896,6.651,8.266C8.021,9.638,10.288,9.529,10.384,9.524z M8.973,5.944
			c0.89,0.891,1.042,2.302,1.063,2.923c-0.62-0.021-2.028-0.172-2.92-1.064C6.227,6.916,6.073,5.502,6.051,4.882
			C6.671,4.9,8.081,5.052,8.973,5.944z"/>
		<path d="M9.496,8.324C9.409,7.672,9.183,6.853,8.623,6.295c-0.578-0.578-1.455-0.792-2.032-0.87
			c0.088,0.65,0.314,1.473,0.873,2.03C8.04,8.03,8.918,8.246,9.496,8.324z"/>
		<path d="M20.906,19.424l-0.294,0.02l-0.016,0.291c-0.006,0.098-0.113,2.365,1.256,3.734c1.371,1.373,3.639,1.264,3.733,1.26
			l0.295-0.018l0.015-0.293c0.006-0.1,0.113-2.365-1.256-3.734C23.269,19.312,21.001,19.42,20.906,19.424z M22.317,23.004
			c-0.889-0.889-1.043-2.301-1.065-2.922c0.621,0.021,2.029,0.172,2.922,1.062c0.89,0.891,1.042,2.303,1.065,2.924
			C24.619,24.049,23.209,23.896,22.317,23.004z"/>
		<path d="M21.792,20.627c0.088,0.65,0.314,1.473,0.874,2.027c0.576,0.578,1.455,0.791,2.032,0.871
			c-0.088-0.65-0.314-1.473-0.873-2.031C23.25,20.918,22.372,20.705,21.792,20.627z"/>
		<path d="M2.842,14.477c0.523,0.398,1.266,0.819,2.056,0.818c0.813,0,1.585-0.47,2.053-0.82c-0.524-0.4-1.262-0.82-2.055-0.82
			C4.079,13.654,3.306,14.123,2.842,14.477z"/>
		<path d="M29.923,14.255c-0.064-0.071-1.592-1.751-3.529-1.751c-1.44-0.002-2.65,0.927-3.205,1.434
			c0.168-0.545,0.271-1.11,0.271-1.705c-0.818,3.547-7.815,6.264-7.815,6.264s-7.239-3.15-7.817-6.264
			c0,0.605,0.137,1.2,0.358,1.784c-0.5-0.478-1.761-1.513-3.292-1.515c-1.937,0-3.463,1.684-3.528,1.752l-0.197,0.222l0.197,0.219
			c0.065,0.071,1.592,1.751,3.528,1.751c1.939,0.002,3.466-1.68,3.53-1.751l0.038-0.042c1.269,2.578,4.089,4.941,5.035,7.174
			c1.543,3.641,2.148,9.463,2.148,9.463s0.393-5.637,1.959-9.334c0.897-2.119,4.004-4.346,5.289-7.23
			c0.168,0.182,1.635,1.721,3.5,1.721c1.938,0.003,3.465-1.679,3.529-1.749l0.197-0.221L29.923,14.255z M4.895,15.787
			c-1.256,0.002-2.365-0.889-2.817-1.312c0.454-0.424,1.554-1.316,2.817-1.316c1.26,0.004,2.364,0.895,2.819,1.316
			C7.26,14.898,6.158,15.786,4.895,15.787z M15.642,25.041c-0.293,0-0.53-0.236-0.53-0.529s0.237-0.531,0.53-0.531
			s0.53,0.238,0.53,0.531S15.935,25.041,15.642,25.041z M15.644,22.82c-0.293,0-0.531-0.236-0.531-0.529s0.238-0.531,0.531-0.531
			s0.53,0.238,0.53,0.531S15.937,22.82,15.644,22.82z M15.645,20.412c-0.293,0-0.53-0.238-0.53-0.531s0.237-0.531,0.53-0.531
			s0.53,0.238,0.53,0.531C16.175,20.172,15.938,20.412,15.645,20.412z M26.394,15.786c-1.254,0.001-2.362-0.888-2.817-1.311
			c0.454-0.423,1.557-1.313,2.817-1.313c1.258,0,2.365,0.891,2.821,1.313C28.761,14.898,27.658,15.787,26.394,15.786z"/>
		<path d="M24.341,14.478c0.523,0.397,1.264,0.818,2.055,0.817c0.815,0,1.588-0.47,2.053-0.821
			c-0.521-0.399-1.264-0.819-2.055-0.819C25.58,13.653,24.808,14.124,24.341,14.478z"/>
		<path d="M10.679,19.441l-0.294-0.018c-0.097-0.004-2.363-0.111-3.735,1.26c-1.371,1.369-1.26,3.637-1.256,3.732l0.016,0.295
			l0.293,0.016c0.098,0.006,2.364,0.113,3.733-1.258c1.372-1.369,1.263-3.641,1.258-3.734L10.679,19.441z M8.972,23.006
			c-0.887,0.887-2.3,1.043-2.92,1.062c0.021-0.621,0.169-2.027,1.063-2.922c0.893-0.889,2.302-1.041,2.924-1.062
			C10.016,20.703,9.864,22.111,8.972,23.006z"/>
		<path d="M8.625,22.654c0.575-0.574,0.791-1.451,0.871-2.031c-0.652,0.09-1.471,0.314-2.033,0.873
			c-0.576,0.578-0.792,1.455-0.869,2.033C7.245,23.441,8.068,23.213,8.625,22.654z"/>
		<path d="M20.612,9.507l0.293,0.018c0.1,0.005,2.363,0.113,3.732-1.259c1.373-1.369,1.264-3.638,1.26-3.732L25.88,4.238
			l-0.293-0.017c-0.098-0.005-2.363-0.113-3.732,1.26c-1.373,1.368-1.263,3.639-1.258,3.731L20.612,9.507z M22.317,5.945
			c0.89-0.888,2.301-1.044,2.923-1.064c-0.022,0.621-0.171,2.028-1.067,2.922c-0.889,0.888-2.299,1.042-2.919,1.064
			C21.274,8.246,21.426,6.837,22.317,5.945z"/>
		<path d="M22.666,6.294c-0.578,0.573-0.79,1.453-0.869,2.034c0.649-0.092,1.472-0.316,2.03-0.875
			c0.576-0.579,0.792-1.456,0.869-2.032C24.046,5.506,23.226,5.734,22.666,6.294z"/>
	</g>
</g>
<g>
</g>
<g>
</g>
<g>
</g>
<g>
</g>
<g>
</g>
<g>
</g>
<g>
</g>
<g>
</g>
<g>
</g>
<g>
</g>
<g>
</g>
<g>
</g>
<g>
</g>
<g>
</g>
<g>
</g>
</svg>
